<svg xmlns="http://www.w3.org/2000/svg" width="48" height="48" fill="none" viewBox="0 0 48 48"><path fill="#0F172A" fill-rule="evenodd" d="M21 7.5c-6.627 0-12 5.373-12 12q0 .501.04.992A10.5 10.5 0 0 0 3 30c0 5.799 4.701 10.5 10.5 10.5H36a9 9 0 0 0 4.412-16.846q.087-.566.088-1.154a7.5 7.5 0 0 0-8.353-7.452C30.379 10.626 26.056 7.5 21 7.5m4.5 12a1.5 1.5 0 0 0-3 0v9.879l-3.44-3.44a1.5 1.5 0 0 0-2.12 2.122l6 6a1.5 1.5 0 0 0 2.12 0l6-6a1.5 1.5 0 0 0-2.12-2.122l-3.44 3.44z" clip-rule="evenodd"/></svg>