<svg xmlns="http://www.w3.org/2000/svg" width="18" height="18" fill="none" viewBox="0 0 18 18"><path fill="#FAFAFA" fill-rule="evenodd" d="M5.625 3.938a2.25 2.25 0 0 1 2.25-2.25h2.25a2.25 2.25 0 0 1 2.25 2.25v.153q1.05.097 2.08.25c1.091.164 1.858 1.113 1.858 2.188v2.275c0 .909-.55 1.764-1.453 2.064a18.5 18.5 0 0 1-5.86.944c-2.047 0-4.017-.331-5.86-.944-.902-.3-1.453-1.155-1.453-2.064V6.53c0-1.075.767-2.024 1.857-2.187a37 37 0 0 1 2.081-.25zm5.625 0v.068a37 37 0 0 0-4.5 0v-.069c0-.62.504-1.124 1.125-1.124h2.25c.621 0 1.125.503 1.125 1.124M9 10.125A.563.563 0 1 0 9 9a.563.563 0 0 0 0 1.125" clip-rule="evenodd"/><path fill="#FAFAFA" d="M2.25 13.8v-2.097q.251.138.535.233A19.7 19.7 0 0 0 9 12.938c2.169 0 4.26-.352 6.215-1.002q.285-.095.535-.233V13.8c0 1.089-.785 2.046-1.892 2.193a37 37 0 0 1-9.716 0C3.035 15.846 2.25 14.889 2.25 13.8"/></svg>