<svg xmlns="http://www.w3.org/2000/svg" width="18" height="18" fill="none" viewBox="0 0 18 18"><path fill="#FAFAFA" fill-rule="evenodd" d="M2.25 4.5A2.25 2.25 0 0 1 4.5 2.25h1.688a2.25 2.25 0 0 1 2.25 2.25v1.688a2.25 2.25 0 0 1-2.25 2.25H4.5a2.25 2.25 0 0 1-2.25-2.25zm7.313 0a2.25 2.25 0 0 1 2.25-2.25H13.5a2.25 2.25 0 0 1 2.25 2.25v1.688a2.25 2.25 0 0 1-2.25 2.25h-1.687a2.25 2.25 0 0 1-2.25-2.25zM2.25 11.813a2.25 2.25 0 0 1 2.25-2.25h1.688a2.25 2.25 0 0 1 2.25 2.25V13.5a2.25 2.25 0 0 1-2.25 2.25H4.5a2.25 2.25 0 0 1-2.25-2.25zm7.313 0a2.25 2.25 0 0 1 2.25-2.25H13.5a2.25 2.25 0 0 1 2.25 2.25V13.5a2.25 2.25 0 0 1-2.25 2.25h-1.687a2.25 2.25 0 0 1-2.25-2.25z" clip-rule="evenodd"/></svg>