<svg xmlns="http://www.w3.org/2000/svg" width="18" height="18" fill="none" viewBox="0 0 18 18"><path fill="#F1F5F9" fill-rule="evenodd" d="M5.625 2.813c-.621 0-1.125.503-1.125 1.124v10.126c0 .62.504 1.124 1.125 1.124h4.5c.621 0 1.125-.503 1.125-1.124V11.25a.562.562 0 1 1 1.125 0v2.813a2.25 2.25 0 0 1-2.25 2.25h-4.5a2.25 2.25 0 0 1-2.25-2.25V3.938a2.25 2.25 0 0 1 2.25-2.25h4.5a2.25 2.25 0 0 1 2.25 2.25V6.75a.562.562 0 1 1-1.125 0V3.938c0-.622-.504-1.126-1.125-1.126zm3.773 3.54c.22.219.22.575 0 .795l-1.29 1.29h8.205a.562.562 0 1 1 0 1.124H8.108l1.29 1.29a.562.562 0 1 1-.796.796l-2.25-2.25a.563.563 0 0 1 0-.796l2.25-2.25c.22-.22.576-.22.796 0" clip-rule="evenodd"/></svg>