<svg xmlns="http://www.w3.org/2000/svg" width="122" height="25" fill="none" viewBox="0 0 122 25"><path fill="url(#a)" d="M23.81 8.014h-8.067V0H8.012A8.01 8.01 0 0 1 0 8.014v7.734h8.012v8.014h7.731c0-4.427 3.642-8.014 8.068-8.014z"/><path fill="#FAFAFA" d="M37.516 20.4v-12H33.81V6.096h9.984V8.4h-3.647v12zm6.517 0V9.955h2.362v2.323l-.192-.345q.364-1.17 1.132-1.632.787-.46 1.882-.46h.614v2.226h-.902q-1.075 0-1.728.672-.653.653-.653 1.843V20.4zm10.907.23q-1.21 0-2.113-.537a3.6 3.6 0 0 1-1.363-1.498q-.46-.96-.46-2.246V9.955h2.514v6.183q0 .652.25 1.152.27.48.749.768.499.268 1.113.268.615 0 1.095-.268.48-.288.749-.788.268-.499.268-1.19V9.955h2.516V20.4h-2.381v-2.054l.21.364q-.364.96-1.209 1.44-.825.48-1.939.48m12.975 0a6.4 6.4 0 0 1-2.535-.499 6.1 6.1 0 0 1-1.996-1.382 5.6 5.6 0 0 1-1.21-2.093l2.17-.94q.517 1.228 1.497 1.938.98.692 2.208.692.692 0 1.19-.212.52-.23.788-.614.288-.384.288-.921 0-.634-.384-1.037-.365-.423-1.114-.653l-2.745-.883q-1.67-.518-2.515-1.556-.845-1.036-.845-2.438 0-1.229.595-2.17a4.1 4.1 0 0 1 1.69-1.459q1.094-.537 2.496-.537 1.286 0 2.361.46 1.075.441 1.843 1.249a4.95 4.95 0 0 1 1.172 1.862l-2.15.96q-.423-1.075-1.268-1.651-.844-.595-1.959-.595-.653 0-1.151.23-.5.211-.788.614-.269.384-.269.922 0 .595.385 1.056.383.442 1.17.691l2.631.826q1.709.556 2.554 1.536.864.978.864 2.419 0 1.229-.634 2.17-.633.94-1.747 1.478t-2.592.538m12.143-.001q-1.555 0-2.803-.71a5.37 5.37 0 0 1-1.94-1.958q-.71-1.248-.71-2.803t.71-2.785a5.2 5.2 0 0 1 1.94-1.939q1.248-.71 2.803-.71a5.3 5.3 0 0 1 2.074.403q.96.384 1.65 1.075.712.672 1.018 1.613l-2.208.96a2.6 2.6 0 0 0-.979-1.267 2.6 2.6 0 0 0-1.555-.48q-.825 0-1.478.403a2.8 2.8 0 0 0-.999 1.114q-.364.71-.364 1.632t.364 1.632.999 1.113q.653.404 1.478.404.902 0 1.575-.48.67-.48.96-1.287l2.207.999a4.3 4.3 0 0 1-.998 1.593q-.69.69-1.651 1.095a5.6 5.6 0 0 1-2.093.384m9.782-.001q-1.095 0-1.901-.364-.807-.365-1.248-1.037-.442-.69-.442-1.594 0-.864.384-1.536.384-.69 1.19-1.152.806-.46 2.036-.652l3.417-.557v1.92l-2.937.499q-.749.135-1.114.48t-.365.902q0 .538.404.864.422.308 1.036.308.788 0 1.383-.327.615-.346.94-.94.346-.596.346-1.306V13.45q0-.672-.538-1.114-.518-.46-1.382-.46-.806 0-1.44.44-.614.423-.902 1.134l-2.055-.999q.307-.826.96-1.42.672-.615 1.575-.96a5.4 5.4 0 0 1 1.958-.346q1.287 0 2.266.48.979.46 1.517 1.306.555.825.556 1.939v6.95h-2.38v-1.785l.537-.039a4.4 4.4 0 0 1-.96 1.133 4.3 4.3 0 0 1-1.267.691q-.71.23-1.575.23m7.97 3.61V9.955h2.362v2.074l-.23-.518a3.6 3.6 0 0 1 1.458-1.306q.922-.48 2.132-.48 1.478 0 2.668.73a5.3 5.3 0 0 1 1.882 1.958q.71 1.229.71 2.765 0 1.515-.691 2.764a5.3 5.3 0 0 1-1.881 1.978q-1.19.71-2.708.71a4.9 4.9 0 0 1-2.092-.441 3.7 3.7 0 0 1-1.498-1.306l.403-.499v5.856zm5.414-5.913q.864 0 1.536-.404a2.7 2.7 0 0 0 1.037-1.113q.384-.711.384-1.632 0-.922-.384-1.613a2.7 2.7 0 0 0-1.037-1.114 2.83 2.83 0 0 0-1.536-.422q-.825 0-1.497.403a2.87 2.87 0 0 0-1.037 1.133q-.365.71-.365 1.613 0 .921.365 1.632.384.71 1.037 1.113.672.404 1.497.404m12.44 2.303q-1.613 0-2.823-.73a5.1 5.1 0 0 1-1.881-1.977q-.672-1.248-.672-2.764 0-1.575.672-2.785a5.2 5.2 0 0 1 1.862-1.939q1.19-.71 2.65-.71 1.229 0 2.15.403.94.403 1.594 1.114.653.71.998 1.632a5.4 5.4 0 0 1 .346 1.958q0 .27-.039.557a1.8 1.8 0 0 1-.096.5h-8.064v-1.92h6.643l-1.19.902q.172-.884-.096-1.575a2.18 2.18 0 0 0-.845-1.094q-.576-.404-1.401-.403-.787 0-1.402.403-.615.384-.941 1.152-.307.749-.23 1.824-.076.96.249 1.709.346.729.999 1.132.672.405 1.536.404.864 0 1.459-.365.615-.366.96-.98l2.035.999q-.308.749-.96 1.325a4.8 4.8 0 0 1-1.555.902 5.6 5.6 0 0 1-1.958.327"/><defs><linearGradient id="a" x1="14.5" x2="21" y1="5" y2="16" gradientUnits="userSpaceOnUse"><stop stop-color="#E9D5FF"/><stop offset="1" stop-color="#D9F99D"/></linearGradient></defs></svg>