<svg xmlns="http://www.w3.org/2000/svg" width="268" height="152" fill="none" viewBox="0 0 268 152"><g clip-path="url(#a)" filter="url(#b)"><path fill="#E9D5FF" d="M-134-76h536v304h-536z"/><path fill="#fff" d="m86.973-36-145.63 87 15.17 92.8L118.324-13"/><path fill="#D9F99D" d="M168.89-44 29.328 76l86.974 40.8L209.343 22"/><path fill="#fff" d="m226.536 54-87.985 193 101.132 20.8L351.94 215M-9.102 60l-42.475 7L65.736 219.8l46.521-85.8"/><path fill="#fff" d="M132.483 141 21.238 192l137.539 151.8L223.502 192"/><path fill="#E9D5FF" d="m202.264 108-96.076 4 21.238 159.8L293.283 127"/></g><defs><clipPath id="a"><rect width="268" height="152" fill="#fff" rx="4"/></clipPath><filter id="b" width="649.42" height="533.22" x="-190.71" y="-132.71" color-interpolation-filters="sRGB" filterUnits="userSpaceOnUse"><feFlood flood-opacity="0" result="BackgroundImageFix"/><feBlend in="SourceGraphic" in2="BackgroundImageFix" result="shape"/><feGaussianBlur result="effect1_foregroundBlur_67_1325" stdDeviation="28.355"/></filter></defs></svg>