<svg xmlns="http://www.w3.org/2000/svg" width="268" height="152" fill="none" viewBox="0 0 268 152"><g clip-path="url(#a)" filter="url(#b)"><path fill="#E9D5FF" d="M402 228h-536V-76h536z"/><path fill="#D9F99D" d="m307.442 183 15.169-152-172.935-17.8L129.449 152"/><path fill="#E9D5FF" d="M91.019 166 233.615 1l-13.147-34.8L49.555 113"/><path fill="#E9D5FF" d="m126.415 100 25.283-169-60.679-17.8L-35.396 3"/><path fill="#fff" d="m196.196 87 115.291-59-6.068-98.8L151.698 75m-42.475-43L215.411-82l-83.939-63.8L16.182-91"/><path fill="#E9D5FF" d="m-50.566 32 182.038-174-164.846-41.8-34.384 54.8"/></g><defs><clipPath id="a"><rect width="268" height="152" x="268" y="152" fill="#fff" rx="4" transform="rotate(-180 268 152)"/></clipPath><filter id="b" width="649.42" height="525.22" x="-190.71" y="-240.51" color-interpolation-filters="sRGB" filterUnits="userSpaceOnUse"><feFlood flood-opacity="0" result="BackgroundImageFix"/><feBlend in="SourceGraphic" in2="BackgroundImageFix" result="shape"/><feGaussianBlur result="effect1_foregroundBlur_67_1345" stdDeviation="28.355"/></filter></defs></svg>